<svg width="500" height="500" viewBox="0 0 500 500" fill="none" xmlns="http://www.w3.org/2000/svg">
<path d="M319.231 249.805C271.251 249.356 227.832 248.951 196.36 248.656C180.659 248.582 167.95 248.522 159.124 248.481C154.751 248.491 151.349 248.499 149 248.504C147.866 248.519 146.993 248.531 146.367 248.539C145.774 248.553 145.47 248.569 145.47 248.587C145.47 248.605 145.774 248.624 146.367 248.644C146.993 248.659 147.866 248.679 149 248.705C151.349 248.734 154.751 248.775 159.124 248.829C167.95 248.875 180.66 248.942 196.36 249.025C227.834 249.045 271.255 249.071 319.237 249.101C367.195 249.096 410.624 249.158 442.063 249.384C457.783 249.494 470.504 249.639 479.296 249.804C483.692 249.886 487.105 249.973 489.42 250.06C491.734 250.147 492.949 250.236 492.949 250.32C492.948 250.404 491.732 250.48 489.417 250.544C487.102 250.608 483.688 250.661 479.291 250.699C470.497 250.776 457.775 250.795 442.055 250.748C410.614 250.659 367.187 250.288 319.231 249.805Z" fill="#EBEBEB"/>
<path d="M318.276 260.328C270.952 252.634 228.125 245.673 197.083 240.626C181.585 238.183 169.039 236.205 160.326 234.832C156.005 234.183 152.642 233.677 150.321 233.329C149.198 233.173 148.334 233.054 147.714 232.968C147.125 232.893 146.823 232.863 146.819 232.882C146.816 232.9 147.113 232.966 147.696 233.075C148.312 233.184 149.171 233.337 150.286 233.535C152.602 233.919 155.956 234.475 160.266 235.189C168.977 236.569 181.522 238.555 197.018 241.009C228.107 245.779 270.997 252.36 318.392 259.632C365.769 266.864 408.661 273.48 439.682 278.451C455.193 280.933 467.737 282.999 476.396 284.492C480.725 285.238 484.083 285.84 486.355 286.277C488.627 286.714 489.813 286.986 489.799 287.07C489.785 287.154 488.571 287.047 486.274 286.762C483.976 286.477 480.595 286.015 476.246 285.389C467.547 284.139 454.976 282.237 439.454 279.816C408.41 274.983 365.57 268.053 318.276 260.328Z" fill="#EBEBEB"/>
<path d="M315.635 270.575C270.148 255.732 228.986 242.301 199.148 232.564C184.239 227.78 172.17 223.907 163.789 221.217C159.627 219.915 156.388 218.902 154.151 218.202C153.068 217.877 152.234 217.626 151.635 217.447C151.066 217.283 150.772 217.208 150.766 217.225C150.76 217.243 151.043 217.353 151.6 217.551C152.191 217.753 153.014 218.036 154.083 218.402C156.308 219.136 159.53 220.199 163.67 221.565C172.049 224.261 184.115 228.143 199.02 232.938C228.949 242.406 270.238 255.467 315.863 269.9C361.478 284.291 402.763 297.387 432.592 307.044C447.507 311.87 459.56 315.831 467.868 318.631C472.022 320.031 475.24 321.14 477.413 321.92C479.586 322.7 480.712 323.151 480.685 323.233C480.657 323.315 479.476 323.024 477.253 322.392C475.03 321.76 471.766 320.786 467.572 319.503C459.184 316.938 447.077 313.136 432.142 308.371C402.268 298.847 361.086 285.445 315.635 270.575Z" fill="#EBEBEB"/>
<path d="M311.37 280.279C268.851 258.668 230.374 239.111 202.484 224.936C188.535 217.931 177.243 212.26 169.402 208.323C165.503 206.4 162.468 204.904 160.374 203.871C159.356 203.383 158.573 203.008 158.012 202.739C157.477 202.489 157.199 202.37 157.19 202.386C157.181 202.402 157.443 202.554 157.961 202.834C158.511 203.124 159.279 203.528 160.276 204.054C162.354 205.118 165.364 206.66 169.232 208.642C177.07 212.585 188.357 218.264 202.301 225.279C230.322 239.207 268.981 258.424 311.7 279.658C354.415 300.849 393.064 320.099 420.958 334.197C434.906 341.243 446.168 346.997 453.92 351.031C457.796 353.048 460.796 354.634 462.816 355.736C464.836 356.838 465.876 357.454 465.836 357.529C465.796 357.605 464.677 357.135 462.585 356.17C460.493 355.204 457.427 353.742 453.494 351.834C445.626 348.016 434.287 342.409 420.309 335.418C392.35 321.442 353.85 301.911 311.37 280.279Z" fill="#EBEBEB"/>
<path d="M305.591 289.217C267.071 261.412 232.212 236.25 206.945 218.012C194.295 208.974 184.054 201.657 176.943 196.576C173.401 194.084 170.645 192.145 168.742 190.806C167.816 190.17 167.103 189.68 166.591 189.329C166.103 189.001 165.847 188.841 165.836 188.856C165.825 188.871 166.059 189.06 166.526 189.416C167.023 189.786 167.716 190.302 168.617 190.972C170.499 192.339 173.224 194.319 176.726 196.864C183.834 201.949 194.069 209.273 206.713 218.32C232.15 236.334 267.243 261.187 306.022 288.65C344.803 316.07 379.882 340.955 405.165 359.117C417.808 368.196 428.006 375.59 435.014 380.752C438.518 383.333 441.225 385.356 443.043 386.751C444.861 388.146 445.79 388.913 445.738 388.981C445.686 389.049 444.656 388.416 442.745 387.145C440.834 385.874 438.041 383.964 434.463 381.481C427.306 376.515 417.008 369.255 404.326 360.227C378.955 342.176 344.069 317.037 305.591 289.217Z" fill="#EBEBEB"/>
<path d="M298.45 297.168C264.848 263.879 234.44 233.754 212.398 211.919C201.348 201.079 192.403 192.303 186.192 186.209C183.092 183.212 180.68 180.88 179.014 179.27C178.201 178.502 177.574 177.91 177.126 177.486C176.696 177.089 176.469 176.891 176.456 176.904C176.442 176.917 176.643 177.139 177.048 177.561C177.48 178.002 178.082 178.616 178.864 179.414C180.504 181.049 182.879 183.417 185.932 186.46C192.139 192.558 201.078 201.339 212.12 212.187C234.365 233.827 265.053 263.682 298.965 296.673C332.886 329.622 363.555 359.506 385.623 381.27C396.66 392.15 405.55 400.995 411.647 407.154C414.695 410.233 417.046 412.641 418.618 414.293C420.191 415.946 420.986 416.844 420.923 416.903C420.861 416.963 419.945 416.181 418.261 414.636C416.577 413.091 414.123 410.783 410.986 407.789C404.711 401.802 395.7 393.073 384.617 382.237C362.448 360.571 332.009 330.465 298.45 297.168Z" fill="#EBEBEB"/>
<path d="M290.126 303.943C262.26 265.979 237.044 231.624 218.766 206.722C209.585 194.343 202.154 184.322 196.993 177.364C194.41 173.935 192.4 171.267 191.013 169.425C190.332 168.543 189.809 167.864 189.433 167.377C189.072 166.919 188.88 166.69 188.864 166.701C188.849 166.712 189.011 166.962 189.344 167.44C189.7 167.94 190.196 168.638 190.841 169.545C192.199 171.408 194.167 174.106 196.695 177.573C201.851 184.535 209.276 194.561 218.447 206.946C236.957 231.686 262.494 265.816 290.714 303.532C318.95 341.207 344.463 375.364 362.78 400.199C371.941 412.615 379.308 422.696 384.344 429.702C386.863 433.205 388.799 435.938 390.088 437.808C391.377 439.678 392.018 440.686 391.947 440.735C391.876 440.785 391.097 439.874 389.679 438.094C388.262 436.313 386.208 433.662 383.588 430.231C378.347 423.368 370.842 413.383 361.629 401.004C343.197 376.25 317.947 341.908 290.126 303.943Z" fill="#EBEBEB"/>
<path d="M280.817 309.373C259.403 267.642 240.024 229.877 225.978 202.503C218.901 188.881 213.173 177.854 209.195 170.197C207.196 166.418 205.639 163.477 204.565 161.447C204.035 160.473 203.626 159.723 203.334 159.185C203.051 158.678 202.897 158.423 202.88 158.431C202.863 158.44 202.983 158.711 203.234 159.234C203.505 159.782 203.883 160.547 204.374 161.541C205.416 163.588 206.924 166.551 208.863 170.361C212.835 178.021 218.556 189.052 225.622 202.679C239.926 229.927 259.659 267.518 281.466 309.057C303.294 350.559 323 388.172 337.097 415.485C344.148 429.14 349.802 440.217 353.649 447.902C355.573 451.744 357.045 454.739 358.017 456.782C358.989 458.825 359.46 459.918 359.381 459.956C359.302 459.995 358.678 458.977 357.565 457.003C356.452 455.029 354.849 452.099 352.813 448.312C348.74 440.737 342.934 429.735 335.825 416.108C321.6 388.856 302.187 351.099 280.817 309.373Z" fill="#EBEBEB"/>
<path d="M270.745 313.316C256.354 268.829 243.331 228.572 233.891 199.391C229.107 184.857 225.235 173.092 222.546 164.921C221.183 160.883 220.122 157.741 219.389 155.572C219.022 154.529 218.741 153.726 218.538 153.15C218.34 152.606 218.23 152.33 218.211 152.336C218.193 152.342 218.267 152.629 218.431 153.183C218.609 153.766 218.859 154.58 219.183 155.636C219.88 157.816 220.89 160.974 222.188 165.032C224.871 173.204 228.734 184.973 233.505 199.51C243.22 228.605 256.623 268.745 271.434 313.102C286.273 357.424 299.646 397.582 309.146 426.71C313.899 441.273 317.689 453.077 320.244 461.255C321.521 465.344 322.491 468.526 323.119 470.692C323.748 472.859 324.036 474.01 323.951 474.036C323.867 474.062 323.415 472.962 322.635 470.843C321.855 468.724 320.746 465.585 319.348 461.533C316.552 453.43 312.599 441.677 307.784 427.133C298.151 398.047 285.093 357.792 270.745 313.316Z" fill="#EBEBEB"/>
<path d="M260.157 315.67C253.146 269.537 246.802 227.789 242.203 197.528C239.832 182.444 237.913 170.232 236.581 161.753C235.889 157.557 235.35 154.292 234.978 152.037C234.785 150.951 234.637 150.114 234.531 149.515C234.424 148.948 234.36 148.659 234.341 148.661C234.323 148.664 234.35 148.959 234.421 149.531C234.503 150.134 234.618 150.975 234.767 152.068C235.103 154.328 235.589 157.601 236.214 161.807C237.54 170.288 239.45 182.5 241.809 197.586C246.692 227.805 253.429 269.495 260.873 315.563C268.351 361.603 275.054 403.305 279.72 433.523C282.056 448.631 283.888 460.868 285.088 469.334C285.688 473.567 286.13 476.858 286.401 479.093C286.671 481.329 286.769 482.509 286.682 482.522C286.595 482.535 286.328 481.379 285.9 479.167C285.473 476.955 284.887 473.685 284.163 469.47C282.713 461.04 280.713 448.829 278.313 433.73C273.507 403.535 267.127 361.785 260.157 315.67Z" fill="#EBEBEB"/>
<path d="M249.319 316.386C249.751 269.754 250.142 227.555 250.425 196.968C250.491 181.709 250.545 169.356 250.582 160.778C250.569 156.529 250.559 153.222 250.552 150.939C250.536 149.837 250.523 148.988 250.514 148.38C250.5 147.803 250.483 147.508 250.465 147.508C250.447 147.508 250.427 147.803 250.407 148.379C250.392 148.987 250.372 149.836 250.346 150.938C250.318 153.221 250.277 156.528 250.225 160.777C250.183 169.355 250.122 181.708 250.046 196.967C250.045 227.556 250.044 269.757 250.043 316.39C250.078 363 250.041 405.209 249.828 435.764C249.725 451.042 249.583 463.406 249.419 471.951C249.337 476.223 249.25 479.541 249.162 481.79C249.073 484.039 248.984 485.22 248.897 485.22C248.81 485.22 248.732 484.038 248.664 481.788C248.597 479.538 248.54 476.22 248.498 471.947C248.413 463.401 248.386 451.036 248.425 435.758C248.496 405.201 248.852 362.994 249.319 316.386Z" fill="#EBEBEB"/>
<path d="M238.492 315.464C246.378 269.465 253.514 227.838 258.687 197.665C261.191 182.601 263.218 170.406 264.625 161.938C265.29 157.738 265.808 154.47 266.165 152.213C266.325 151.122 266.447 150.281 266.535 149.679C266.612 149.107 266.642 148.813 266.623 148.81C266.604 148.807 266.537 149.096 266.424 149.662C266.312 150.261 266.156 151.096 265.953 152.18C265.56 154.431 264.989 157.691 264.257 161.881C262.843 170.348 260.807 182.541 258.292 197.604C253.403 227.822 246.659 269.51 239.207 315.578C231.796 361.628 225.016 403.319 219.92 433.471C217.376 448.548 215.257 460.74 213.727 469.156C212.962 473.364 212.345 476.628 211.897 478.837C211.449 481.045 211.17 482.198 211.083 482.185C210.996 482.171 211.106 480.992 211.397 478.759C211.689 476.526 212.163 473.239 212.803 469.012C214.084 460.557 216.033 448.337 218.514 433.251C223.47 403.074 230.573 361.434 238.492 315.464Z" fill="#EBEBEB"/>
<path d="M227.946 312.903C243.189 268.686 256.984 228.671 266.982 199.666C271.895 185.174 275.873 173.441 278.635 165.294C279.972 161.248 281.012 158.1 281.73 155.926C282.064 154.873 282.321 154.062 282.506 153.48C282.675 152.927 282.751 152.641 282.733 152.635C282.715 152.629 282.601 152.904 282.398 153.446C282.19 154.02 281.9 154.821 281.524 155.86C280.77 158.023 279.679 161.155 278.276 165.18C275.507 173.325 271.521 185.055 266.596 199.544C256.873 228.637 243.46 268.774 228.638 313.127C213.86 357.469 200.411 397.602 190.493 426.598C185.537 441.097 181.469 452.813 178.593 460.89C177.156 464.928 176.016 468.057 175.215 470.169C174.414 472.281 173.951 473.377 173.866 473.349C173.782 473.322 174.08 472.174 174.729 470.013C175.378 467.852 176.378 464.679 177.695 460.602C180.329 452.448 184.233 440.679 189.127 426.161C198.911 397.119 212.675 357.087 227.946 312.903Z" fill="#EBEBEB"/>
<path d="M217.959 308.765C240.168 267.428 260.266 230.019 274.834 202.905C282.033 189.344 287.861 178.366 291.907 170.743C293.883 166.952 295.421 164.002 296.482 161.966C296.983 160.977 297.369 160.215 297.645 159.67C297.901 159.15 298.024 158.879 298.007 158.871C297.99 158.863 297.834 159.117 297.546 159.621C297.248 160.156 296.833 160.902 296.293 161.872C295.199 163.892 293.614 166.819 291.578 170.58C287.525 178.2 281.689 189.174 274.48 202.73C260.166 229.972 240.418 267.557 218.597 309.088C196.819 350.615 177.038 388.191 162.55 415.309C155.308 428.869 149.396 439.818 145.25 447.355C143.177 451.124 141.547 454.04 140.415 456.003C139.283 457.967 138.65 458.979 138.572 458.94C138.494 458.901 138.976 457.813 139.968 455.779C140.96 453.745 142.463 450.765 144.424 446.94C148.347 439.291 154.109 428.267 161.293 414.678C175.657 387.495 195.728 350.064 217.959 308.765Z" fill="#EBEBEB"/>
<path d="M208.759 303.153C237.344 265.698 263.212 231.804 281.962 207.235C291.253 194.935 298.775 184.977 303.998 178.063C306.56 174.619 308.553 171.939 309.93 170.089C310.584 169.188 311.087 168.495 311.448 167.998C311.785 167.523 311.95 167.274 311.935 167.264C311.92 167.253 311.725 167.48 311.359 167.935C310.979 168.418 310.448 169.092 309.759 169.968C308.353 171.797 306.318 174.447 303.702 177.852C298.474 184.763 290.945 194.715 281.644 207.009C263.125 231.742 237.576 265.864 209.343 303.571C181.154 341.279 155.572 375.388 136.9 399.971C127.567 412.264 119.965 422.181 114.658 428.995C112.004 432.402 109.925 435.034 108.491 436.802C107.057 438.57 106.268 439.473 106.198 439.422C106.127 439.372 106.778 438.37 108.085 436.512C109.392 434.654 111.355 431.938 113.907 428.459C119.012 421.5 126.476 411.486 135.757 399.155C154.314 374.489 180.159 340.568 208.759 303.153Z" fill="#EBEBEB"/>
<path d="M200.573 296.219C234.804 263.541 265.781 233.968 288.234 212.533C299.381 201.787 308.405 193.088 314.671 187.047C317.753 184.032 320.151 181.686 321.807 180.066C322.597 179.275 323.205 178.666 323.641 178.23C324.05 177.812 324.253 177.591 324.239 177.578C324.226 177.565 323.997 177.76 323.563 178.154C323.11 178.574 322.478 179.16 321.658 179.92C319.977 181.515 317.542 183.825 314.413 186.793C308.142 192.83 299.112 201.523 287.958 212.262C265.705 233.895 235.006 263.739 201.082 296.718C167.201 329.706 136.471 359.531 114.092 380.993C102.905 391.726 93.809 400.372 87.476 406.302C84.31 409.267 81.834 411.553 80.135 413.082C78.436 414.611 77.512 415.384 77.451 415.324C77.389 415.264 78.193 414.373 79.782 412.735C81.37 411.097 83.744 408.711 86.823 405.66C92.979 399.557 101.955 390.794 113.097 380.016C135.377 358.457 166.334 328.855 200.573 296.219Z" fill="#EBEBEB"/>
<path d="M193.598 288.132C232.642 261.026 267.975 236.497 293.586 218.717C306.317 209.787 316.623 202.557 323.78 197.537C327.306 195.025 330.05 193.07 331.945 191.72C332.852 191.058 333.55 190.549 334.051 190.183C334.522 189.832 334.757 189.644 334.746 189.63C334.735 189.615 334.478 189.773 333.987 190.096C333.472 190.442 332.754 190.926 331.822 191.553C329.906 192.874 327.131 194.788 323.565 197.247C316.405 202.262 306.093 209.485 293.356 218.406C267.913 236.412 232.811 261.253 194.022 288.703C155.275 316.168 120.146 340.986 94.605 358.804C81.836 367.715 71.468 374.881 64.263 379.781C60.66 382.231 57.849 384.115 55.926 385.368C54.002 386.622 52.967 387.246 52.915 387.177C52.864 387.108 53.8 386.35 55.631 384.972C57.462 383.594 60.189 381.596 63.718 379.047C70.776 373.949 81.045 366.649 93.776 357.687C119.233 339.757 154.552 315.195 193.598 288.132Z" fill="#EBEBEB"/>
<path d="M188.005 279.089C230.93 258.25 269.775 239.393 297.931 225.724C311.942 218.838 323.284 213.263 331.161 209.392C335.048 207.446 338.073 205.932 340.161 204.886C341.163 204.37 341.935 203.972 342.488 203.687C343.01 203.412 343.272 203.262 343.263 203.246C343.254 203.23 342.975 203.346 342.437 203.591C341.873 203.855 341.086 204.223 340.064 204.7C337.959 205.714 334.91 207.182 330.992 209.069C323.113 212.934 311.766 218.501 297.751 225.377C269.724 239.296 231.058 258.498 188.331 279.718C145.642 300.959 106.954 320.135 78.861 333.852C64.815 340.714 53.422 346.215 45.517 349.96C41.565 351.832 38.485 353.265 36.383 354.211C34.281 355.157 33.158 355.615 33.118 355.539C33.078 355.463 34.125 354.855 36.155 353.772C38.185 352.689 41.2 351.129 45.095 349.148C52.886 345.185 64.203 339.535 78.219 332.617C106.248 318.775 145.084 299.884 188.005 279.089Z" fill="#EBEBEB"/>
<path d="M183.941 269.302C229.705 255.287 271.119 242.605 301.138 233.412C316.089 228.754 328.192 224.983 336.597 222.364C340.751 221.037 343.983 220.003 346.215 219.29C347.288 218.933 348.114 218.659 348.707 218.462C349.266 218.269 349.55 218.162 349.544 218.144C349.538 218.126 349.243 218.199 348.673 218.358C348.073 218.532 347.237 218.775 346.15 219.09C343.907 219.769 340.658 220.752 336.484 222.016C328.077 224.628 315.971 228.39 301.016 233.037C271.085 242.497 229.793 255.549 184.163 269.972C138.568 284.423 97.258 297.445 67.294 306.696C52.313 311.324 40.17 315.015 31.757 317.504C27.551 318.748 24.278 319.692 22.049 320.305C19.82 320.917 18.636 321.198 18.609 321.116C18.582 321.034 19.713 320.594 21.894 319.835C24.074 319.075 27.303 317.996 31.471 316.635C39.806 313.912 51.897 310.063 66.858 305.375C96.777 295.992 138.188 283.275 183.941 269.302Z" fill="#EBEBEB"/>
<path d="M181.512 259.013C228.975 252.171 271.926 245.978 303.059 241.49C318.578 239.177 331.141 237.304 339.865 236.003C344.182 235.327 347.541 234.802 349.861 234.439C350.978 234.251 351.839 234.107 352.456 234.003C353.04 233.898 353.337 233.836 353.334 233.818C353.331 233.8 353.028 233.827 352.439 233.896C351.819 233.976 350.953 234.088 349.829 234.234C347.504 234.562 344.137 235.037 339.81 235.647C331.085 236.941 318.52 238.805 302.999 241.108C271.909 245.873 229.019 252.446 181.622 259.711C134.255 267.007 91.351 273.549 60.262 278.102C44.718 280.382 32.129 282.17 23.418 283.341C19.063 283.927 15.677 284.359 13.377 284.623C11.077 284.887 9.86198 284.984 9.84898 284.899C9.83598 284.814 11.025 284.553 13.301 284.137C15.577 283.72 18.941 283.149 23.277 282.442C31.949 281.028 44.513 279.076 60.047 276.734C91.114 272.044 134.068 265.817 181.512 259.013Z" fill="#EBEBEB"/>
<path d="M180.769 248.481C228.749 248.872 272.169 249.225 303.642 249.482C319.343 249.537 332.053 249.581 340.879 249.612C345.251 249.597 348.654 249.585 351.003 249.577C352.137 249.561 353.01 249.548 353.636 249.539C354.229 249.525 354.533 249.508 354.533 249.49C354.533 249.472 354.229 249.454 353.636 249.435C353.01 249.421 352.137 249.402 351.003 249.377C348.654 249.351 345.252 249.313 340.88 249.265C332.054 249.229 319.344 249.178 303.643 249.114C272.17 249.132 228.749 249.158 180.767 249.186C132.809 249.249 89.38 249.239 57.94 249.052C42.22 248.961 29.498 248.831 20.706 248.677C16.31 248.6 12.896 248.518 10.582 248.433C8.26698 248.348 7.05198 248.262 7.05298 248.178C7.05298 248.094 8.26898 248.017 10.584 247.949C12.899 247.882 16.313 247.825 20.71 247.782C29.503 247.694 42.226 247.66 57.946 247.688C89.385 247.737 132.813 248.056 180.769 248.481Z" fill="#EBEBEB"/>
<path d="M181.711 237.958C229.045 245.593 271.881 252.502 302.93 257.51C318.431 259.934 330.98 261.896 339.694 263.259C344.016 263.903 347.379 264.404 349.701 264.75C350.824 264.904 351.689 265.023 352.308 265.108C352.896 265.183 353.199 265.212 353.202 265.193C353.205 265.175 352.908 265.11 352.326 265.001C351.71 264.892 350.851 264.741 349.735 264.544C347.419 264.163 344.064 263.611 339.753 262.902C331.04 261.533 318.493 259.562 302.994 257.127C271.899 252.395 229.001 245.867 181.596 238.654C134.21 231.48 91.309 224.917 60.281 219.984C44.767 217.52 32.22 215.47 23.56 213.988C19.23 213.247 15.871 212.649 13.599 212.215C11.326 211.781 10.14 211.51 10.154 211.426C10.168 211.341 11.382 211.447 13.68 211.729C15.978 212.011 19.36 212.47 23.71 213.089C32.411 214.328 44.984 216.215 60.509 218.616C91.558 223.413 134.406 230.29 181.711 237.958Z" fill="#EBEBEB"/>
<path d="M184.339 227.707C229.845 242.493 271.026 255.874 300.875 265.574C315.79 270.34 327.864 274.198 336.249 276.877C340.413 278.174 343.653 279.183 345.89 279.88C346.974 280.204 347.809 280.453 348.407 280.632C348.976 280.795 349.271 280.87 349.277 280.853C349.283 280.835 349 280.725 348.443 280.528C347.852 280.326 347.028 280.045 345.958 279.68C343.732 278.949 340.509 277.89 336.367 276.529C327.984 273.843 315.913 269.976 301.002 265.199C271.061 255.768 229.755 242.758 184.11 228.381C138.476 214.046 97.174 201.002 67.333 191.381C52.412 186.574 40.354 182.628 32.042 179.838C27.886 178.443 24.666 177.338 22.493 176.561C20.319 175.783 19.191 175.334 19.219 175.252C19.247 175.17 20.429 175.459 22.652 176.089C24.876 176.718 28.141 177.688 32.337 178.965C40.729 181.52 52.84 185.306 67.782 190.054C97.668 199.542 138.867 212.893 184.339 227.707Z" fill="#EBEBEB"/>
<path d="M188.59 217.997C231.137 239.555 269.64 259.065 297.548 273.206C311.506 280.194 322.805 285.851 330.651 289.779C334.553 291.697 337.59 293.19 339.685 294.22C340.703 294.706 341.487 295.081 342.048 295.349C342.583 295.598 342.862 295.717 342.871 295.701C342.88 295.685 342.618 295.533 342.099 295.254C341.549 294.965 340.78 294.561 339.782 294.037C337.703 292.975 334.691 291.437 330.82 289.46C322.977 285.526 311.682 279.861 297.729 272.864C269.69 258.97 231.006 239.801 188.259 218.619C145.517 197.48 106.842 178.278 78.93 164.215C64.973 157.186 53.703 151.446 45.946 147.422C42.067 145.41 39.066 143.827 37.045 142.728C35.024 141.629 33.982 141.014 34.022 140.939C34.062 140.863 35.181 141.331 37.275 142.294C39.368 143.257 42.436 144.715 46.372 146.619C54.244 150.427 65.591 156.02 79.578 162.994C107.557 176.934 146.082 196.417 188.59 217.997Z" fill="#EBEBEB"/>
<path d="M194.358 209.052C232.914 236.81 267.805 261.929 293.096 280.137C305.758 289.16 316.008 296.464 323.126 301.536C326.671 304.023 329.43 305.959 331.334 307.296C332.262 307.931 332.976 308.42 333.487 308.77C333.976 309.097 334.232 309.257 334.243 309.243C334.254 309.228 334.02 309.039 333.553 308.684C333.056 308.315 332.361 307.8 331.46 307.131C329.577 305.766 326.849 303.789 323.344 301.249C316.23 296.172 305.985 288.861 293.329 279.83C267.869 261.847 232.744 237.037 193.929 209.622C155.112 182.25 120.002 157.408 94.695 139.276C82.04 130.213 71.833 122.831 64.818 117.677C61.311 115.1 58.601 113.081 56.781 111.688C54.961 110.295 54.032 109.529 54.083 109.461C54.135 109.392 55.166 110.024 57.079 111.293C58.992 112.562 61.787 114.468 65.369 116.946C72.532 121.903 82.84 129.151 95.534 138.164C120.925 156.183 155.844 181.28 194.358 209.052Z" fill="#EBEBEB"/>
<path d="M201.489 201.092C235.134 234.34 265.581 264.428 287.65 286.236C298.714 297.063 307.67 305.828 313.89 311.914C316.994 314.907 319.409 317.236 321.077 318.845C321.891 319.612 322.518 320.203 322.967 320.626C323.398 321.023 323.625 321.22 323.638 321.207C323.651 321.194 323.45 320.972 323.045 320.551C322.613 320.111 322.009 319.497 321.226 318.7C319.584 317.067 317.206 314.702 314.15 311.663C307.935 305.573 298.984 296.802 287.928 285.968C265.656 264.355 234.929 234.537 200.975 201.587C167.011 168.679 136.304 138.832 114.207 117.096C103.156 106.23 94.255 97.3951 88.15 91.2441C85.098 88.1681 82.744 85.7641 81.169 84.1131C79.595 82.4621 78.798 81.565 78.861 81.505C78.923 81.445 79.84 82.225 81.526 83.768C83.212 85.311 85.669 87.6161 88.81 90.6061C95.093 96.5851 104.116 105.304 115.212 116.125C137.409 137.767 167.887 167.836 201.489 201.092Z" fill="#EBEBEB"/>
<path d="M209.804 194.308C237.718 232.238 262.98 266.562 281.29 291.442C290.486 303.809 297.931 313.821 303.101 320.774C305.688 324.2 307.701 326.866 309.091 328.706C309.773 329.587 310.298 330.265 310.674 330.752C311.035 331.209 311.228 331.438 311.244 331.428C311.259 331.417 311.096 331.167 310.764 330.69C310.407 330.19 309.91 329.492 309.264 328.587C307.903 326.726 305.933 324.03 303.4 320.566C298.235 313.61 290.797 303.593 281.61 291.219C263.067 266.502 237.486 232.403 209.218 194.722C180.934 157.081 155.376 122.956 137.027 98.1429C127.85 85.7389 120.47 75.6659 115.424 68.6669C112.901 65.1669 110.961 62.4359 109.67 60.5679C108.379 58.6999 107.736 57.6929 107.807 57.6429C107.878 57.5929 108.659 58.5019 110.078 60.2809C111.497 62.0599 113.555 64.7089 116.179 68.1369C121.429 74.9929 128.946 84.9689 138.176 97.3369C156.64 122.066 181.934 156.376 209.804 194.308Z" fill="#EBEBEB"/>
<path d="M219.106 188.866C240.575 230.571 260.003 268.312 274.085 295.669C281.179 309.282 286.922 320.302 290.91 327.954C292.915 331.731 294.475 334.67 295.552 336.699C296.084 337.673 296.493 338.422 296.787 338.96C297.071 339.466 297.225 339.722 297.242 339.713C297.259 339.705 297.138 339.433 296.887 338.911C296.615 338.363 296.236 337.598 295.744 336.605C294.7 334.56 293.187 331.598 291.244 327.791C287.262 320.136 281.527 309.112 274.443 295.494C260.104 268.264 240.322 230.697 218.461 189.185C196.579 147.71 176.824 110.121 162.691 82.8261C155.622 69.1801 149.954 58.1091 146.097 50.4291C144.168 46.5891 142.692 43.5971 141.717 41.5551C140.743 39.5131 140.27 38.4211 140.349 38.3821C140.427 38.3431 141.053 39.3601 142.169 41.3321C143.285 43.3051 144.891 46.2331 146.932 50.0181C151.015 57.5871 156.835 68.5831 163.962 82.2011C178.22 109.433 197.682 147.166 219.106 188.866Z" fill="#EBEBEB"/>
<path d="M229.173 184.91C243.622 229.379 256.698 269.621 266.176 298.79C270.978 313.318 274.866 325.079 277.566 333.246C278.935 337.282 280 340.423 280.735 342.591C281.103 343.634 281.386 344.437 281.589 345.012C281.787 345.556 281.898 345.831 281.917 345.826C281.935 345.82 281.86 345.533 281.696 344.979C281.516 344.396 281.266 343.583 280.941 342.527C280.241 340.347 279.227 337.191 277.924 333.134C275.231 324.965 271.352 313.202 266.561 298.67C256.808 269.587 243.352 229.463 228.483 185.125C213.585 140.821 200.16 100.68 190.623 71.564C185.851 57.007 182.045 45.207 179.48 37.033C178.197 32.946 177.223 29.765 176.592 27.599C175.961 25.433 175.671 24.283 175.756 24.257C175.84 24.231 176.293 25.33 177.076 27.449C177.859 29.568 178.971 32.705 180.375 36.755C183.182 44.854 187.15 56.603 191.984 71.141C201.656 100.214 214.767 140.453 229.173 184.91Z" fill="#EBEBEB"/>
<path d="M239.758 182.543C246.829 228.667 253.227 270.407 257.865 300.663C260.255 315.744 262.191 327.953 263.534 336.431C264.232 340.626 264.775 343.89 265.15 346.145C265.344 347.231 265.494 348.067 265.601 348.667C265.709 349.234 265.774 349.523 265.792 349.521C265.81 349.518 265.783 349.223 265.711 348.651C265.628 348.048 265.512 347.207 265.362 346.115C265.023 343.855 264.533 340.583 263.902 336.378C262.565 327.899 260.639 315.689 258.26 300.606C253.338 270.393 246.547 228.712 239.042 182.652C231.504 136.622 224.747 94.927 220.042 64.715C217.687 49.61 215.838 37.375 214.628 28.91C214.023 24.678 213.576 21.387 213.303 19.152C213.03 16.917 212.93 15.736 213.017 15.723C213.104 15.71 213.373 16.865 213.803 19.077C214.233 21.289 214.823 24.558 215.553 28.771C217.013 37.199 219.03 49.408 221.45 64.504C226.293 94.694 232.727 136.437 239.758 182.543Z" fill="#EBEBEB"/>
<path d="M250.593 181.814C250.221 228.446 249.885 270.645 249.641 301.234C249.594 316.493 249.557 328.846 249.53 337.424C249.549 341.674 249.563 344.98 249.573 347.263C249.591 348.365 249.604 349.214 249.614 349.822C249.629 350.398 249.647 350.694 249.665 350.694C249.683 350.694 249.702 350.399 249.722 349.822C249.736 349.214 249.755 348.365 249.78 347.263C249.805 344.98 249.842 341.673 249.889 337.424C249.92 328.846 249.965 316.493 250.021 301.234C249.982 270.645 249.928 228.444 249.869 181.811C249.774 135.201 249.757 92.993 249.93 62.437C250.014 47.159 250.139 34.794 250.292 26.249C250.368 21.976 250.451 18.659 250.537 16.409C250.623 14.159 250.711 12.978 250.798 12.979C250.884 12.979 250.965 14.161 251.035 16.411C251.106 18.661 251.166 21.979 251.213 26.252C251.309 34.798 251.352 47.163 251.333 62.441C251.301 92.999 251 135.206 250.593 181.814Z" fill="#EBEBEB"/>
<path d="M261.422 182.723C253.597 228.732 246.515 270.368 241.382 300.547C238.898 315.614 236.887 327.811 235.491 336.281C234.831 340.482 234.318 343.751 233.964 346.008C233.806 347.099 233.684 347.94 233.597 348.542C233.521 349.114 233.491 349.408 233.51 349.411C233.529 349.414 233.595 349.125 233.707 348.559C233.818 347.96 233.973 347.125 234.175 346.04C234.566 343.788 235.131 340.528 235.858 336.337C237.261 327.868 239.281 315.672 241.776 300.607C246.624 270.383 253.314 228.686 260.706 182.609C268.056 136.55 274.781 94.851 279.837 64.692C282.362 49.612 284.463 37.417 285.982 28.999C286.741 24.79 287.354 21.525 287.8 19.316C288.245 17.107 288.523 15.954 288.609 15.967C288.696 15.98 288.588 17.16 288.299 19.394C288.01 21.627 287.541 24.915 286.906 29.143C285.636 37.6 283.703 49.821 281.242 64.911C276.328 95.095 269.28 136.743 261.422 182.723Z" fill="#EBEBEB"/>
<path d="M271.971 185.27C256.787 229.506 243.045 269.538 233.085 298.556C228.191 313.055 224.23 324.792 221.478 332.943C220.146 336.991 219.11 340.14 218.395 342.316C218.062 343.369 217.806 344.181 217.623 344.763C217.455 345.316 217.379 345.603 217.397 345.608C217.415 345.614 217.528 345.339 217.731 344.797C217.938 344.223 218.227 343.422 218.602 342.382C219.353 340.218 220.44 337.085 221.838 333.058C224.596 324.909 228.567 313.175 233.472 298.68C243.156 269.574 256.516 229.421 271.279 185.05C285.998 140.69 299.394 100.539 309.273 71.531C314.21 57.026 318.262 45.304 321.127 37.224C322.56 33.184 323.695 30.054 324.493 27.941C325.292 25.828 325.753 24.732 325.838 24.759C325.923 24.786 325.625 25.935 324.979 28.096C324.332 30.258 323.337 33.432 322.025 37.511C319.402 45.668 315.514 57.442 310.639 71.967C300.895 101.018 287.184 141.068 271.971 185.27Z" fill="#EBEBEB"/>
<path d="M281.964 189.397C259.81 230.762 239.761 268.195 225.229 295.328C218.048 308.898 212.234 319.883 208.198 327.511C206.227 331.305 204.693 334.257 203.634 336.294C203.134 337.284 202.75 338.046 202.474 338.592C202.218 339.113 202.096 339.383 202.112 339.392C202.129 339.4 202.284 339.146 202.572 338.642C202.869 338.107 203.284 337.36 203.822 336.39C204.913 334.369 206.494 331.44 208.525 327.677C212.567 320.052 218.389 309.071 225.58 295.506C239.857 268.246 259.556 230.637 281.322 189.078C303.045 147.524 322.777 109.923 337.229 82.787C344.453 69.217 350.351 58.261 354.487 50.719C356.554 46.948 358.181 44.03 359.311 42.065C360.44 40.1 361.073 39.087 361.15 39.126C361.228 39.165 360.747 40.253 359.758 42.288C358.769 44.323 357.27 47.305 355.314 51.132C351.401 58.786 345.654 69.817 338.487 83.416C324.162 110.614 304.141 148.069 281.964 189.397Z" fill="#EBEBEB"/>
<path d="M291.171 194.997C262.636 232.487 236.812 266.414 218.094 291.005C208.819 303.317 201.31 313.283 196.096 320.204C193.539 323.651 191.549 326.334 190.175 328.186C189.522 329.087 189.02 329.782 188.66 330.279C188.324 330.754 188.159 331.003 188.174 331.014C188.189 331.025 188.384 330.797 188.748 330.342C189.128 329.858 189.658 329.184 190.345 328.307C191.749 326.476 193.78 323.823 196.392 320.415C201.611 313.498 209.127 303.536 218.412 291.23C236.899 266.474 262.403 232.32 290.587 194.579C318.726 156.836 344.264 122.696 362.903 98.089C372.221 85.784 379.809 75.859 385.107 69.038C387.756 65.627 389.833 62.993 391.264 61.223C392.696 59.454 393.483 58.55 393.554 58.6C393.624 58.65 392.975 59.652 391.671 61.512C390.367 63.372 388.407 66.09 385.859 69.572C380.764 76.537 373.313 86.56 364.047 98.902C345.522 123.594 319.723 157.547 291.171 194.997Z" fill="#EBEBEB"/>
<path d="M299.366 201.921C265.178 234.642 234.24 264.252 211.814 285.715C200.681 296.475 191.669 305.185 185.41 311.233C182.332 314.251 179.937 316.6 178.284 318.222C177.495 319.014 176.887 319.624 176.452 320.061C176.044 320.48 175.841 320.7 175.854 320.713C175.867 320.726 176.096 320.53 176.529 320.136C176.981 319.716 177.613 319.129 178.432 318.367C180.111 316.77 182.543 314.457 185.668 311.485C191.93 305.441 200.949 296.736 212.09 285.984C234.314 264.324 264.974 234.442 298.855 201.421C332.693 168.391 363.383 138.528 385.734 117.039C396.908 106.292 405.992 97.635 412.317 91.698C415.48 88.729 417.952 86.441 419.65 84.909C421.347 83.378 422.27 82.604 422.331 82.664C422.393 82.724 421.59 83.616 420.004 85.256C418.418 86.896 416.047 89.284 412.973 92.339C406.824 98.449 397.86 107.224 386.732 118.015C364.482 139.603 333.562 169.243 299.366 201.921Z" fill="#EBEBEB"/>
<path d="M306.352 209.999C267.344 237.153 232.043 261.726 206.455 279.538C193.736 288.484 183.439 295.726 176.289 300.755C172.766 303.272 170.024 305.23 168.131 306.582C167.225 307.245 166.527 307.756 166.027 308.121C165.557 308.473 165.322 308.66 165.333 308.675C165.344 308.69 165.601 308.531 166.092 308.208C166.606 307.861 167.323 307.377 168.255 306.749C170.17 305.425 172.942 303.508 176.505 301.045C183.659 296.021 193.961 288.786 206.687 279.848C232.106 261.811 267.176 236.927 305.929 209.429C344.64 181.916 379.736 157.055 405.254 139.205C418.011 130.278 428.37 123.099 435.569 118.191C439.168 115.737 441.977 113.849 443.899 112.593C445.821 111.337 446.856 110.712 446.907 110.781C446.958 110.85 446.023 111.609 444.194 112.99C442.365 114.37 439.641 116.372 436.115 118.925C429.064 124.031 418.804 131.344 406.085 140.322C380.649 158.283 345.363 182.888 306.352 209.999Z" fill="#EBEBEB"/>
<path d="M311.957 219.036C269.06 239.928 230.239 258.834 202.101 272.538C188.099 279.442 176.764 285.03 168.893 288.911C165.009 290.862 161.986 292.38 159.899 293.428C158.898 293.945 158.126 294.344 157.574 294.629C157.053 294.905 156.79 295.055 156.799 295.071C156.807 295.088 157.087 294.97 157.624 294.725C158.188 294.461 158.974 294.092 159.996 293.613C162.1 292.597 165.146 291.125 169.062 289.233C176.936 285.358 188.275 279.777 202.282 272.884C230.29 258.93 268.931 239.68 311.63 218.407C354.29 197.113 392.953 177.889 421.028 164.136C435.064 157.257 446.451 151.741 454.351 147.987C458.301 146.11 461.379 144.673 463.48 143.725C465.58 142.777 466.704 142.317 466.743 142.393C466.783 142.469 465.737 143.078 463.708 144.164C461.679 145.25 458.667 146.813 454.774 148.799C446.988 152.772 435.679 158.436 421.672 165.371C393.661 179.247 354.85 198.187 311.957 219.036Z" fill="#EBEBEB"/>
<path d="M316.034 228.817C270.289 242.889 228.891 255.623 198.885 264.854C183.94 269.531 171.842 273.317 163.44 275.946C159.288 277.279 156.058 278.316 153.826 279.032C152.754 279.39 151.928 279.666 151.335 279.863C150.776 280.056 150.493 280.164 150.499 280.182C150.505 280.2 150.8 280.127 151.37 279.967C151.969 279.792 152.806 279.548 153.892 279.232C156.134 278.55 159.381 277.563 163.554 276.294C171.958 273.671 184.059 269.894 199.008 265.228C228.926 255.73 270.201 242.627 315.812 228.147C361.388 213.639 402.681 200.566 432.633 191.277C447.608 186.63 459.746 182.924 468.155 180.425C472.36 179.175 475.632 178.227 477.86 177.612C480.088 176.997 481.271 176.715 481.299 176.797C481.326 176.879 480.195 177.32 478.016 178.082C475.836 178.844 472.609 179.928 468.443 181.294C460.111 184.027 448.025 187.892 433.071 192.599C403.162 202.018 361.768 214.787 316.034 228.817Z" fill="#EBEBEB"/>
<path d="M318.476 239.102C271.022 246.004 228.079 252.249 196.952 256.776C181.436 259.109 168.875 260.997 160.153 262.309C155.837 262.99 152.478 263.52 150.159 263.886C149.042 264.075 148.181 264.221 147.565 264.326C146.981 264.431 146.684 264.494 146.687 264.512C146.69 264.53 146.993 264.503 147.582 264.433C148.202 264.352 149.068 264.239 150.192 264.092C152.517 263.761 155.883 263.282 160.21 262.667C168.933 261.362 181.495 259.482 197.013 257.16C228.096 252.356 270.979 245.729 318.365 238.406C365.722 231.051 408.618 224.456 439.7 219.864C455.241 217.565 467.828 215.761 476.537 214.579C480.891 213.988 484.276 213.552 486.576 213.285C488.876 213.018 490.09 212.92 490.103 213.004C490.117 213.088 488.928 213.351 486.652 213.77C484.377 214.189 481.014 214.765 476.679 215.477C468.009 216.901 455.447 218.869 439.917 221.231C408.857 225.96 365.911 232.24 318.476 239.102Z" fill="#EBEBEB"/>
<path d="M457.755 483.749C457.755 483.893 364.02 484.009 248.419 484.009C132.778 484.009 39.063 483.893 39.063 483.749C39.063 483.605 132.778 483.489 248.419 483.489C364.02 483.489 457.755 483.606 457.755 483.749Z" fill="#263238"/>
<path d="M346.685 428.111C346.685 428.111 342.199 438.261 343.748 447.362C345.297 456.463 343.549 467.219 347.529 469.116C351.509 471.013 353.232 468.813 353.463 464.547C353.694 460.28 354.194 453.735 354.32 448.699C354.447 443.663 354.731 442.302 354.731 442.302L356.426 428.639L346.685 428.111Z" fill="#FFBF9D"/>
<path d="M363.922 422.165C363.922 422.165 370.158 447.051 370.137 450.135C370.116 453.219 368.132 457.544 368.132 457.544C368.132 457.544 366.238 468.445 365.215 469.766C364.191 471.086 354.036 472.829 354.036 472.829L347.529 469.115L350.169 463.45L355.785 464.365L357.08 459.697L353.435 454.304L350.319 428.307L363.922 422.165Z" fill="#FFBF9D"/>
<path d="M357.413 441.371C357.447 441.384 357.32 441.839 357.068 442.653C356.829 443.471 356.464 444.647 356.082 446.119C355.307 449.057 354.451 453.183 354.086 457.804C353.987 458.959 353.939 460.089 353.899 461.181C353.868 462.274 353.852 463.345 353.702 464.364C353.448 466.401 352.45 468.21 351.051 469.024C349.637 469.869 348.182 469.53 347.462 469.076C347.086 468.842 346.851 468.584 346.724 468.393C346.598 468.201 346.555 468.087 346.568 468.08C346.613 468.042 346.826 468.508 347.561 468.899C348.261 469.271 349.612 469.512 350.856 468.71C352.104 467.93 353.006 466.252 353.226 464.297C353.358 463.317 353.365 462.266 353.389 461.167C353.422 460.066 353.467 458.926 353.566 457.761C353.933 453.099 354.856 448.948 355.726 446.019C356.157 444.551 356.576 443.386 356.875 442.586C357.189 441.791 357.38 441.359 357.413 441.371Z" fill="#FF9A6C"/>
<path d="M346.685 428.111L342.184 412.737C342.184 412.737 358.65 401.097 359.55 401.863C360.45 402.629 364.585 424.842 364.585 424.842L356.141 433.912L346.685 428.111Z" fill="#FFBF9D"/>
<path d="M313.675 199.917C308.087 191.514 278.766 183.31 278.766 183.31L286.644 189.879L303.668 281.612L341.27 416.826L370.563 411.345C370.563 411.345 332.664 228.473 313.675 199.917Z" fill="#37664F"/>
<path d="M330.521 380.079L261.293 414.09C261.293 414.09 255.788 455.314 260.524 483.75H323.121C338.972 429.118 330.521 380.079 330.521 380.079Z" fill="#263238"/>
<path d="M271.395 419.016L198.601 359.903C198.601 359.903 169.35 404.413 178.55 448.688C179.93 455.326 184.307 474.169 187.182 483.75H273.143C270.959 452.451 271.395 419.016 271.395 419.016Z" fill="#263238"/>
<path d="M330.862 381.047C331.127 380.949 272.062 424.223 272.062 424.223L192.867 370.454L207.48 342.484C207.48 342.484 248.014 359.766 269.027 355.432C290.04 351.098 313.069 332.341 313.069 332.341C318.243 343.588 327.631 368.585 330.862 381.047Z" fill="#263238"/>
<path d="M291.729 391.968C291.467 392.331 291.114 392.82 290.657 393.454C289.703 394.807 288.328 396.756 286.549 399.278C282.962 404.422 277.752 411.893 271.165 421.337L271.108 421.419L271.117 421.517C271.866 429.776 272.15 439.367 272.663 450.045C273.172 460.723 272.801 471.147 273.403 483.771L274.237 483.729C273.591 471.108 273.923 460.687 273.376 450.011C272.819 439.384 272.482 429.813 271.681 421.57C278.148 412.104 283.268 404.61 286.795 399.448C288.522 396.891 289.857 394.914 290.783 393.542C291.214 392.89 291.546 392.386 291.792 392.013C292.015 391.667 292.123 391.488 292.113 391.481C292.103 391.472 291.973 391.637 291.729 391.968Z" fill="#455A64"/>
<path d="M288.26 81.4611C296.164 87.6871 300.675 97.9801 299.897 108.012C299.519 112.885 298.175 118.446 301.345 122.166C304.483 125.848 310.645 125.742 313.653 129.532C317.194 133.993 314.229 140.633 315.496 146.186C316.686 151.399 322.184 155.24 327.488 154.564C321.27 159.642 313.628 162.958 305.672 164.03C303.637 161.418 301.603 158.806 299.568 156.193C301.882 158.937 301.267 163.31 299.025 166.113C296.784 168.916 293.326 170.443 289.905 171.529C273.562 176.713 254.83 173.668 240.971 163.575" fill="#263238"/>
<path d="M196.645 124.517C197.865 120.781 199.914 117.319 200.736 113.475C202.501 105.215 198.477 95.916 202.484 88.48C205.336 83.187 211.414 80.596 217.16 78.826C222.906 77.057 229.073 75.556 233.358 71.339C236.501 68.246 238.289 63.986 241.421 60.882C245.885 56.459 252.474 54.96 258.746 54.575C265.186 54.18 271.846 54.799 277.639 57.642C283.432 60.485 288.242 65.822 289.275 72.192C289.778 75.298 289.397 78.553 290.376 81.543C291.453 84.831 294.035 87.389 295.627 90.461C298.992 96.952 297.168 105.693 291.489 110.298L247.269 167.416C237.98 170.925 215.473 166.681 208.293 159.821C201.114 152.96 193.562 133.956 196.645 124.517Z" fill="#263238"/>
<path d="M290.32 103.041C288.497 90.073 278.635 74.749 265.757 77.12L226.001 90.484C222.088 91.204 224.889 97.584 225.272 101.544L233.916 191.201C233.851 191.221 228.546 195.035 226.628 194.3C226.131 194.109 225.684 194.668 225.986 195.107C230.761 202.039 253.299 232.347 276.527 223.094C281.717 221.027 275.985 204.677 276.592 198.619L275.902 183.145C275.388 175.245 275.138 172.008 275.149 172.081C275.149 172.081 291.585 168.037 293.364 146.051C294.249 135.118 292.346 117.448 290.32 103.041Z" fill="#FFBF9D"/>
<path d="M283.651 122.573C283.816 124.04 282.71 125.39 281.181 125.59C279.656 125.79 278.281 124.767 278.116 123.299C277.951 121.832 279.057 120.481 280.583 120.281C282.112 120.081 283.486 121.107 283.651 122.573Z" fill="#263238"/>
<path d="M256.394 124.004C256.559 125.471 255.453 126.821 253.924 127.021C252.398 127.221 251.024 126.198 250.859 124.73C250.695 123.263 251.8 121.912 253.326 121.712C254.855 121.511 256.229 122.537 256.394 124.004Z" fill="#263238"/>
<path d="M288.551 113.815C288.249 114.325 285.656 112.686 282.412 113.159C279.163 113.577 277.085 115.857 276.661 115.445C276.456 115.265 276.708 114.386 277.607 113.36C278.491 112.341 280.099 111.244 282.123 110.965C284.147 110.69 285.983 111.313 287.098 112.058C288.235 112.805 288.703 113.584 288.551 113.815Z" fill="#263238"/>
<path d="M259.411 116.22C259.028 116.69 256.477 114.839 252.988 114.988C249.498 115.083 247.023 117.109 246.624 116.667C246.429 116.471 246.797 115.638 247.877 114.722C248.936 113.81 250.769 112.894 252.945 112.816C255.121 112.742 256.99 113.528 258.082 114.364C259.194 115.205 259.598 116.01 259.411 116.22Z" fill="#263238"/>
<path d="M270.351 136.768C270.325 136.598 272.162 136.133 275.152 135.515C275.912 135.377 276.624 135.169 276.713 134.637C276.851 134.07 276.468 133.27 276.028 132.407C275.166 130.61 274.263 128.726 273.316 126.752C269.535 118.695 266.735 112.046 267.06 111.897C267.386 111.747 270.715 118.157 274.497 126.213C275.41 128.202 276.284 130.096 277.116 131.91C277.473 132.758 278.047 133.706 277.744 134.884C277.582 135.472 277.052 135.93 276.572 136.1C276.093 136.287 275.663 136.329 275.286 136.38C272.26 136.779 270.376 136.938 270.351 136.768Z" fill="#263238"/>
<path d="M275.149 172.081C275.149 172.081 260.609 174.146 245.463 166.557C245.463 166.557 253.946 181.239 275.53 177.536L275.149 172.081Z" fill="#FF9A6C"/>
<path d="M261.207 145.517C261.613 144.821 262.049 144.094 262.745 143.688C263.513 143.241 264.466 143.263 265.34 143.427C266.611 143.665 267.864 144.201 268.736 145.155C269.608 146.109 270.032 147.528 269.592 148.743C269.256 149.997 267.386 150.683 266.107 150.908C264.829 151.133 263.503 150.76 262.371 150.123C261.422 149.589 260.508 148.737 260.459 147.649C260.425 146.885 260.823 146.177 261.207 145.517Z" fill="#FF9A6C"/>
<path d="M261.822 141.297C262.307 141.231 262.564 144.484 265.526 146.58C268.484 148.684 271.925 148.051 271.985 148.504C272.046 148.705 271.261 149.196 269.8 149.348C268.368 149.508 266.235 149.207 264.423 147.926C262.615 146.64 261.739 144.807 261.525 143.481C261.297 142.13 261.598 141.295 261.822 141.297Z" fill="#263238"/>
<path d="M259.148 104.488C258.915 105.326 255.892 105.169 252.409 105.864C248.91 106.488 246.154 107.735 245.631 107.04C245.396 106.706 245.832 105.902 246.917 105.024C247.993 104.149 249.749 103.261 251.843 102.864C253.937 102.471 255.895 102.658 257.216 103.08C258.546 103.501 259.245 104.092 259.148 104.488Z" fill="#263238"/>
<path d="M286.703 102.845C286.153 103.572 283.738 103.047 280.898 103.232C278.052 103.33 275.692 104.093 275.084 103.423C274.815 103.096 275.141 102.385 276.141 101.66C277.126 100.938 278.816 100.28 280.771 100.182C282.725 100.087 284.462 100.573 285.503 101.195C286.561 101.817 286.944 102.493 286.703 102.845Z" fill="#263238"/>
<path d="M217.209 93.607C219.214 90.519 222.819 88.932 226.253 87.606C241.064 81.887 256.558 77.941 272.299 75.879C274.26 79.11 272.447 83.509 269.488 85.861C266.531 88.213 262.729 89.143 259.189 90.466C255.649 91.791 252.02 93.83 250.561 97.317C249.01 101.026 250.319 105.418 248.957 109.199C246.613 115.706 237.533 117.804 235.225 124.324C233.48 129.255 236.336 134.505 237.051 139.687C237.86 145.559 235.686 151.766 231.389 155.849C228 159.069 223.361 160.875 218.695 160.965C217.618 142.294 216.54 123.623 215.463 104.952C215.237 101.063 215.088 96.874 217.209 93.607Z" fill="#263238"/>
<path d="M179.594 140.775C182.543 138.132 186.24 135.846 187.415 132.065C189.127 126.557 184.703 120.085 187.552 115.069C190.15 110.495 197.804 110.726 200.219 106.052C202.105 102.402 199.939 99.1721 200.656 95.9671C201.373 92.7621 205.922 89.9501 209.184 90.3341L234.682 127.289C237.05 139.686 239.432 146.285 236.771 153.537C235.311 157.515 233.407 161.392 232.836 165.591C232.264 169.789 233.337 174.547 236.77 177.03C221.525 178.225 207.238 170.246 194.034 162.531C189.376 159.809 184.718 157.088 180.06 154.366C178.606 153.516 177.092 152.609 176.221 151.167C174.173 147.779 176.646 143.418 179.594 140.775Z" fill="#263238"/>
<path d="M193.652 158.796C193.652 158.796 194.195 158.998 195.281 159.109C196.36 159.218 198.001 159.267 200.029 158.773C202.038 158.284 204.475 157.257 206.653 155.207C208.831 153.189 210.586 150.04 211.013 146.296C211.221 144.43 211.096 142.427 210.514 140.449C209.927 138.461 208.823 136.616 207.683 134.783C206.558 132.946 205.329 131.062 204.762 128.904C204.202 126.785 204.198 124.265 205.579 122.439C206.966 120.581 209.542 120.127 211.932 119.163C213.135 118.683 214.377 117.936 215.183 116.755C215.988 115.578 216.259 114.129 216.232 112.757C216.199 109.965 215.01 107.414 214.498 104.816C214.237 103.515 214.143 102.169 214.473 100.922C214.796 99.676 215.582 98.583 216.674 97.83C218.875 96.258 221.683 96.007 224.386 95.769C227.105 95.574 229.948 94.961 232.243 93.457C234.565 92.023 236.427 89.967 237.621 87.628C238.803 85.261 239.232 82.719 239.606 80.321C239.975 77.916 240.303 75.577 241.1 73.468C241.897 71.369 243.182 69.546 244.686 68.063C247.761 65.137 251.644 63.58 255.233 63.287C258.847 62.982 262.126 63.94 264.675 65.254C267.248 66.57 269.172 68.229 270.547 69.727C273.295 72.773 274.063 75.002 274.177 74.929C274.191 74.923 274.142 74.789 274.032 74.533C273.914 74.281 273.77 73.888 273.504 73.414C273.01 72.446 272.162 71.065 270.804 69.496C269.446 67.937 267.52 66.206 264.904 64.813C262.311 63.424 258.946 62.385 255.183 62.661C251.454 62.926 247.412 64.498 244.174 67.532C242.59 69.069 241.223 70.978 240.369 73.191C239.519 75.405 239.176 77.803 238.796 80.194C238.414 82.582 237.979 85.034 236.863 87.244C235.735 89.437 233.973 91.373 231.784 92.718C229.602 94.128 227.015 94.69 224.301 94.89C221.627 95.13 218.621 95.358 216.156 97.108C214.932 97.946 213.981 99.25 213.614 100.695C213.234 102.141 213.356 103.62 213.629 104.987C214.189 107.738 215.337 110.208 215.36 112.775C215.387 114.036 215.14 115.285 214.471 116.272C213.799 117.259 212.748 117.918 211.604 118.38C210.465 118.861 209.241 119.19 208.06 119.691C206.887 120.174 205.71 120.881 204.926 121.944C203.33 124.101 203.406 126.857 204.006 129.104C204.637 131.427 205.923 133.344 207.057 135.172C208.211 136.995 209.286 138.771 209.857 140.647C210.427 142.523 210.567 144.436 210.388 146.228C210.017 149.825 208.373 152.873 206.308 154.849C204.241 156.86 201.892 157.91 199.942 158.438C195.959 159.449 193.641 158.637 193.652 158.796Z" fill="#455A64"/>
<path d="M173.315 132.523C173.315 132.523 173.009 132.896 172.812 133.769C172.612 134.626 172.637 136.041 173.467 137.549C173.895 138.283 174.517 139.046 175.418 139.6C176.312 140.15 177.45 140.488 178.675 140.468C181.102 140.494 183.962 139.032 185.352 136.228C186.056 134.859 186.438 133.254 186.439 131.58C186.436 129.897 186.003 128.19 185.366 126.542C184.156 123.243 181.96 120.028 181.912 116.173C181.87 114.305 182.308 112.275 183.681 110.932C185.039 109.555 187.138 109.219 189.223 109.201C191.312 109.13 193.589 109.398 195.824 108.517C196.92 108.072 197.91 107.262 198.538 106.231C199.177 105.207 199.511 104.037 199.653 102.868C199.934 100.49 199.378 98.241 199.102 96.089C198.767 93.937 198.9 91.817 199.455 89.807C200.575 85.796 203.262 82.429 206.551 80.496C209.856 78.503 213.679 78.288 217.123 78.082C220.59 77.898 223.94 77.681 226.773 76.56C229.607 75.502 231.881 73.905 233.604 72.262C235.347 70.625 236.527 68.913 237.346 67.457C238.962 64.504 239.161 62.619 239.161 62.619C239.053 62.579 238.727 64.437 237.047 67.284C236.197 68.689 235 70.335 233.266 71.898C231.552 73.47 229.312 74.983 226.558 75.969C223.815 77.013 220.566 77.193 217.084 77.345C213.641 77.525 209.674 77.694 206.137 79.788C202.65 81.814 199.814 85.336 198.617 89.572C198.022 91.679 197.882 93.989 198.226 96.204C198.514 98.409 199.035 100.602 198.771 102.76C198.553 104.908 197.442 106.956 195.485 107.699C193.56 108.478 191.346 108.266 189.203 108.33C187.088 108.353 184.685 108.698 183.082 110.329C181.478 111.928 181.04 114.196 181.093 116.191C181.133 118.225 181.737 120.161 182.489 121.871C183.228 123.599 184.052 125.203 184.678 126.807C185.312 128.403 185.732 130.018 185.752 131.585C185.769 133.153 185.429 134.661 184.791 135.942C183.535 138.56 180.931 139.941 178.664 139.971C177.529 140.013 176.47 139.722 175.635 139.237C174.795 138.75 174.19 138.053 173.764 137.374C172.936 135.976 172.85 134.633 172.988 133.799C173.121 132.951 173.361 132.543 173.315 132.523Z" fill="#263238"/>
<path d="M333.994 141.631C333.852 141.621 334.819 143.093 333.944 145.617C333.504 146.804 332.511 148.252 330.775 148.831C329.087 149.408 326.734 148.962 325.179 147.302C324.4 146.487 323.948 145.351 323.868 144.109C323.786 142.868 324.032 141.556 324.452 140.25C325.262 137.669 326.913 134.86 326.66 131.496C326.476 128.233 324.821 124.893 322.022 122.685C320.638 121.574 319.015 120.723 317.27 120.182C315.52 119.619 313.654 119.494 311.84 119.402C310.02 119.308 308.23 119.259 306.568 118.851C304.916 118.455 303.416 117.608 302.466 116.301C301.512 114.998 301.093 113.376 300.982 111.79C300.868 110.189 301.062 108.617 301.377 107.088C302.001 104.041 302.914 101.08 302.744 98.1681C302.592 95.2731 301.491 92.7011 300.02 90.7601C298.545 88.7821 296.638 87.5721 295.052 86.5631C293.443 85.5561 292.073 84.6861 291.08 83.8191C289.042 82.0991 288.691 80.5391 288.581 80.6091C288.567 80.6141 288.589 80.7041 288.646 80.8761C288.712 81.0441 288.775 81.3141 288.951 81.6231C289.25 82.2671 289.85 83.1601 290.848 84.0751C291.833 85.0071 293.203 85.9351 294.781 86.9781C296.347 88.0291 298.149 89.2331 299.517 91.1351C300.887 93.0071 301.897 95.4711 302.008 98.2011C302.142 100.945 301.239 103.818 300.575 106.923C300.242 108.477 300.022 110.145 300.135 111.847C300.246 113.537 300.681 115.323 301.763 116.815C302.842 118.317 304.573 119.283 306.354 119.708C308.147 120.149 309.983 120.193 311.794 120.289C313.606 120.381 315.369 120.501 317.009 121.027C318.651 121.532 320.178 122.33 321.476 123.364C324.096 125.416 325.646 128.515 325.841 131.547C326.111 134.624 324.581 137.318 323.747 140.03C323.326 141.395 323.073 142.796 323.182 144.162C323.282 145.52 323.824 146.83 324.719 147.734C326.497 149.559 329.069 149.982 330.934 149.302C332.849 148.604 333.851 147.004 334.268 145.733C334.701 144.421 334.583 143.315 334.415 142.63C334.225 141.936 333.994 141.631 333.994 141.631Z" fill="#263238"/>
<path d="M292.063 188.059C292.063 188.059 312.704 223.417 320.106 239.998C324.227 249.229 325.243 266.67 318.424 293.391C313.31 313.43 324.102 340.567 325.742 344.464C329.443 353.254 305.789 365.584 302.489 367.76C273.243 387.044 207.674 351.628 207.674 351.628L225.708 311.359L210.527 277.341L204.904 188.768L232.922 179.018C247.793 186.34 269.769 186.521 275.845 182.267L292.063 188.059Z" fill="#37664F"/>
<path d="M289.478 373.508C289.478 373.508 289.629 373.457 289.927 373.384C290.248 373.309 290.687 373.206 291.252 373.073C291.842 372.936 292.561 372.77 293.405 372.575C294.241 372.307 295.2 372 296.277 371.655C297.365 371.332 298.502 370.77 299.786 370.269C301.06 369.741 302.372 369.005 303.812 368.29C306.61 366.696 309.69 364.687 312.818 362.106C315.944 359.529 319.121 356.393 322.111 352.686C322.497 352.232 322.844 351.742 323.209 351.26C323.58 350.781 323.933 350.285 324.271 349.773C324.627 349.272 324.953 348.748 325.267 348.213C325.437 347.95 325.576 347.677 325.709 347.399L325.916 346.985L326.028 346.577C326.166 345.377 325.974 344.076 325.779 342.799C325.568 341.514 325.309 340.217 325.013 338.909C323.831 333.677 322.303 328.245 320.738 322.611C319.954 319.794 319.148 316.929 318.375 314.006C317.991 312.544 317.611 311.068 317.28 309.566C317.112 308.815 316.963 308.057 316.864 307.274C316.782 306.483 316.778 305.71 316.778 304.929C316.884 298.725 317.54 292.725 318.17 286.93L318.172 286.914L318.176 286.896C320.687 276.983 322.89 267.572 323.263 258.941C323.323 256.79 323.312 254.689 323.023 252.686C322.732 250.693 322.157 248.796 321.635 246.974C320.55 243.333 319.232 240.058 317.937 237.132C315.333 231.277 312.722 226.842 310.87 223.843C309.942 222.342 309.188 221.206 308.673 220.441C308.425 220.073 308.23 219.786 308.086 219.572C307.955 219.376 307.888 219.276 307.895 219.27C307.895 219.27 307.98 219.357 308.124 219.544C308.269 219.73 308.479 220.012 308.748 220.387C309.288 221.137 310.068 222.258 311.021 223.746C312.923 226.72 315.585 231.138 318.239 236.995C319.56 239.922 320.902 243.202 322.012 246.858C322.546 248.689 323.132 250.583 323.44 252.626C323.742 254.663 323.761 256.786 323.708 258.957C323.361 267.659 321.171 277.095 318.67 287.022L318.676 286.989C318.054 292.767 317.403 298.779 317.298 304.929C317.297 305.697 317.303 306.474 317.38 307.215C317.474 307.96 317.621 308.712 317.787 309.455C318.115 310.943 318.493 312.415 318.875 313.874C319.644 316.791 320.448 319.656 321.228 322.474C322.786 328.111 324.306 333.548 325.48 338.805C325.774 340.119 326.031 341.425 326.241 342.725C326.432 344.028 326.634 345.316 326.478 346.653C326.432 346.823 326.389 346.998 326.335 347.162L326.117 347.597C325.975 347.889 325.827 348.175 325.655 348.44C325.332 348.986 324.998 349.518 324.637 350.023C324.293 350.54 323.934 351.041 323.559 351.522C323.188 352.007 322.836 352.5 322.446 352.955C319.419 356.678 316.21 359.815 313.05 362.389C309.889 364.967 306.777 366.966 303.95 368.544C302.495 369.251 301.17 369.978 299.883 370.495C298.586 370.985 297.439 371.535 296.341 371.845C295.254 372.174 294.287 372.467 293.444 372.723C292.59 372.919 291.859 373.052 291.273 373.174C290.703 373.285 290.259 373.372 289.936 373.435C289.635 373.492 289.478 373.508 289.478 373.508Z" fill="#263238"/>
<g opacity="0.3">
<path d="M324.939 335.35C321.275 320.81 320.338 305.588 322.19 290.708C323.696 278.613 326.14 266.336 323.538 254.429C323.63 265.405 321.347 273.94 318.424 286.96C315.673 299.215 317.402 305.184 317.593 309.783" fill="black"/>
</g>
<path opacity="0.3" d="M207.674 351.627C207.674 351.627 213.059 354.09 218.008 346.533C222.957 338.976 228.952 313.655 229.789 310.948C230.321 309.227 232.183 256.2 232.183 256.2L223.552 306.527L225.708 311.359C223.165 318.236 221.08 321.368 218.553 328.005C214.877 337.659 210.823 349.887 207.674 351.627Z" fill="black"/>
<path d="M230.413 255.861C230.413 255.861 221.544 342.752 207.674 351.627C204.207 353.846 199.999 354.549 195.637 354.354C180.119 353.663 168.06 340.521 168.014 324.988C167.96 306.558 171.075 281.521 172.266 271.222C174.651 250.596 183.011 194.543 204.904 188.768C226.797 182.992 230.413 214.404 230.413 214.404V255.861Z" fill="#37664F"/>
<path d="M174.613 183.349C174.613 183.349 170.598 188.667 170.623 194.361C170.63 195.986 173.628 207.783 173.628 207.783L186.021 217.304L209.164 224.772L207.312 237.699L227.222 241.083C227.222 241.083 227.616 225.768 227.222 216.113C226.828 206.458 215.202 196.749 215.202 196.749C215.202 196.749 205.547 185.123 201.409 185.715C197.271 186.306 197.468 190.838 199.439 193.4C201.409 195.961 206.927 202.07 206.927 202.07L184.07 200.1L177.174 194.189C177.174 194.189 179.454 188.208 178.75 186.11C177.63 182.766 174.613 183.349 174.613 183.349Z" fill="#FFBF9D"/>
<path d="M176.967 199.636C177.009 199.577 177.831 200.079 179.128 200.937C180.425 201.795 182.196 203.011 184.133 204.379C184.266 204.473 184.398 204.567 184.521 204.654L184.225 204.652C186.2 203.324 188.447 203.198 189.893 203.492C190.629 203.633 191.196 203.847 191.565 204.034C191.934 204.221 192.118 204.357 192.103 204.384C192.066 204.469 191.263 204.026 189.838 203.846C188.441 203.655 186.344 203.844 184.518 205.081L184.369 205.182L184.222 205.078C184.099 204.991 183.966 204.898 183.833 204.804C181.896 203.436 180.159 202.173 178.916 201.238C177.673 200.302 176.925 199.694 176.967 199.636Z" fill="#FF9A6C"/>
<path d="M176.076 209.168C176.202 209.238 170.484 219.823 163.307 232.809C156.127 245.799 150.207 256.27 150.081 256.2C149.955 256.13 155.671 245.547 162.851 232.557C170.028 219.572 175.95 209.099 176.076 209.168Z" fill="#263238"/>
<path d="M187.129 200.195C187.273 200.203 186.843 210.151 186.168 222.411C185.494 234.676 184.831 244.609 184.687 244.601C184.543 244.593 184.973 234.648 185.648 222.383C186.322 210.122 186.985 200.187 187.129 200.195Z" fill="#263238"/>
<path d="M188.075 200.443C188.218 200.432 189.172 211.316 190.206 224.75C191.24 238.189 191.961 249.089 191.817 249.099C191.674 249.11 190.72 238.228 189.686 224.79C188.653 211.356 187.932 200.454 188.075 200.443Z" fill="#263238"/>
<path d="M73.292 390.724L134.813 249.007L207.157 231.171L146.776 382.53L73.292 390.724Z" fill="#455A64"/>
<path d="M105.235 406.35L73.292 390.724L146.776 382.53L187.613 401.827L105.235 406.35Z" fill="#455A64"/>
<path opacity="0.3" d="M105.235 406.35L73.292 390.724L146.776 382.53L187.613 401.827L105.235 406.35Z" fill="black"/>
<path d="M207.157 231.171L208.776 237.777L219.989 237.438L187.613 401.827L146.776 382.53L207.157 231.171Z" fill="#455A64"/>
<path d="M207.157 231.171C207.157 231.171 207.099 231.364 206.963 231.73C206.817 232.113 206.611 232.651 206.344 233.351C205.782 234.79 204.966 236.881 203.918 239.564C201.783 244.969 198.705 252.76 194.906 262.379C187.243 281.64 176.669 308.219 164.99 337.576C158.544 353.71 152.434 369.003 146.995 382.618L146.67 382.32C156.751 377.271 165.871 372.704 173.754 368.755L173.935 368.664L174.012 368.85C178.228 379.014 181.643 387.246 184.012 392.957C185.176 395.794 186.083 398.003 186.706 399.523C187.003 400.263 187.232 400.832 187.394 401.236C187.546 401.623 187.612 401.827 187.612 401.827C187.612 401.827 187.513 401.638 187.344 401.257C187.17 400.858 186.925 400.296 186.607 399.565C185.962 398.054 185.024 395.858 183.82 393.038C181.414 387.343 177.946 379.133 173.664 368.996L173.922 369.092C166.05 373.065 156.945 377.661 146.88 382.741L146.325 383.021L146.555 382.443C151.981 368.823 158.075 353.524 164.504 337.383C176.239 308.049 186.863 281.489 194.562 262.243C198.427 252.65 201.557 244.88 203.728 239.49C204.815 236.822 205.662 234.744 206.245 233.313C206.533 232.622 206.754 232.09 206.912 231.711C207.067 231.351 207.157 231.171 207.157 231.171Z" fill="#263238"/>
<path d="M208.776 237.777C208.915 237.814 201.206 267.204 191.56 303.414C181.911 339.636 173.978 368.96 173.839 368.923C173.7 368.886 181.407 339.502 191.057 303.28C200.703 267.07 208.637 237.74 208.776 237.777Z" fill="#263238"/>
<path opacity="0.3" d="M207.157 231.171L208.776 237.777L173.839 368.923L146.776 382.53L207.157 231.171Z" fill="black"/>
<path d="M171.221 197.726C171.327 197.823 161.586 208.566 149.466 221.718C137.342 234.874 127.432 245.457 127.326 245.359C127.22 245.262 136.959 234.521 149.083 221.365C161.202 208.214 171.115 197.629 171.221 197.726Z" fill="#263238"/>
<path d="M50.537 356.949L112.058 235.602L184.403 220.331L124.021 349.932L50.537 356.949Z" fill="#37664F"/>
<path d="M82.48 370.329L50.537 356.949L124.021 349.932L164.858 366.455L82.48 370.329Z" fill="#37664F"/>
<path opacity="0.3" d="M82.48 370.329L50.537 356.949L124.021 349.932L164.858 366.455L82.48 370.329Z" fill="black"/>
<path d="M184.403 220.331L186.021 225.987L197.235 225.696L164.858 366.455L124.021 349.932L184.403 220.331Z" fill="#37664F"/>
<path d="M184.403 220.331C184.403 220.331 184.344 220.5 184.205 220.819C184.055 221.156 183.846 221.625 183.576 222.23C183.004 223.486 182.175 225.303 181.113 227.633C178.944 232.335 175.821 239.106 171.965 247.464C164.187 264.204 153.458 287.298 141.606 312.805C135.416 326.072 129.532 338.685 124.237 350.033L123.927 349.714C134.059 345.373 143.2 341.456 151.01 338.11L151.175 338.039L151.253 338.2C155.469 346.905 158.885 353.956 161.256 358.851C162.419 361.279 163.326 363.171 163.951 364.478C164.247 365.109 164.476 365.597 164.64 365.947C164.792 366.279 164.858 366.456 164.858 366.456C164.858 366.456 164.759 366.296 164.591 365.971C164.416 365.627 164.171 365.146 163.855 364.525C163.208 363.229 162.272 361.351 161.07 358.942C158.663 354.064 155.196 347.038 150.916 338.364L151.159 338.454C143.361 341.827 134.233 345.776 124.116 350.151L123.541 350.4L123.805 349.832C129.088 338.478 134.958 325.859 141.134 312.585C153.039 287.103 163.818 264.032 171.631 247.308C175.55 238.98 178.724 232.233 180.929 227.547C182.03 225.234 182.888 223.431 183.481 222.185C183.771 221.589 183.995 221.128 184.157 220.796C184.311 220.485 184.403 220.331 184.403 220.331Z" fill="#263238"/>
<path d="M186.021 225.987C186.158 226.03 178.448 251.204 168.802 282.209C159.152 313.224 151.221 338.324 151.084 338.282C150.947 338.24 158.655 313.07 168.305 282.055C177.951 251.049 185.884 225.944 186.021 225.987Z" fill="#263238"/>
<path opacity="0.3" d="M184.403 220.331L186.021 225.987L151.084 338.281L124.021 349.932L184.403 220.331Z" fill="black"/>
<path d="M141.655 229.355C141.651 229.337 141.912 229.264 142.411 229.142C142.959 229.014 143.688 228.843 144.601 228.63C146.561 228.196 149.305 227.588 152.674 226.841C159.548 225.37 168.956 223.356 179.349 221.132C181.045 220.775 182.715 220.423 184.349 220.079L184.585 220.029L184.651 220.26C185.203 222.201 185.741 224.091 186.261 225.918L186.015 225.737C190.084 225.645 193.859 225.56 197.229 225.484L197.505 225.478L197.442 225.745C196.302 230.534 195.357 234.501 194.684 237.33C194.35 238.675 194.083 239.747 193.887 240.535C193.797 240.871 193.723 241.147 193.662 241.372C193.608 241.56 193.575 241.656 193.564 241.654C193.553 241.652 193.565 241.551 193.599 241.358C193.643 241.129 193.697 240.849 193.763 240.507C193.931 239.713 194.16 238.632 194.447 237.276C195.077 234.438 195.961 230.456 197.028 225.65L197.241 225.91C193.872 226.008 190.097 226.118 186.029 226.237L185.836 226.243L185.782 226.056C185.257 224.23 184.713 222.342 184.155 220.402L184.456 220.584C182.822 220.93 181.153 221.283 179.457 221.642C169.051 223.808 159.632 225.769 152.75 227.202C149.367 227.881 146.611 228.434 144.643 228.829C143.722 229.003 142.987 229.141 142.433 229.246C141.926 229.334 141.658 229.372 141.655 229.355Z" fill="#263238"/>
<path d="M187.688 211.306C187.595 211.371 186.968 209.926 185.129 208.337C184.213 207.558 182.992 206.759 181.488 206.244C180.743 205.967 179.922 205.863 179.034 205.584C178.599 205.436 178.142 205.221 177.78 204.85C177.416 204.48 177.206 203.978 177.116 203.491C176.943 202.499 177.048 201.605 176.912 200.752C176.804 199.896 176.602 199.083 176.334 198.336C176.06 197.594 175.746 196.891 175.347 196.336C174.951 195.768 174.42 195.429 173.853 195.254C173.299 195.071 172.757 195.046 172.345 195.211C171.936 195.378 171.683 195.714 171.554 196.012C171.288 196.617 171.279 197.016 171.221 197.005C171.203 197.004 171.199 196.908 171.208 196.725C171.211 196.542 171.249 196.27 171.367 195.933C171.476 195.601 171.737 195.178 172.227 194.945C172.718 194.716 173.347 194.726 173.961 194.902C174.574 195.058 175.246 195.459 175.692 196.077C176.152 196.685 176.484 197.399 176.784 198.17C177.076 198.945 177.298 199.792 177.417 200.686C177.562 201.581 177.47 202.534 177.626 203.391C177.707 203.819 177.874 204.204 178.151 204.49C178.428 204.777 178.803 204.965 179.198 205.101C179.991 205.361 180.871 205.49 181.647 205.791C183.211 206.355 184.458 207.22 185.373 208.061C186.29 208.909 186.88 209.737 187.231 210.332C187.585 210.93 187.711 211.295 187.688 211.306Z" fill="#FF9A6C"/>
<path d="M175.686 183.456C175.75 183.513 175.237 184.128 174.575 185.22C173.906 186.308 173.144 187.906 172.569 189.77C171.422 193.511 171.344 196.737 171.168 196.722C171.103 196.72 171.05 195.916 171.14 194.617C171.23 193.321 171.485 191.526 172.072 189.617C172.66 187.708 173.501 186.082 174.267 185.02C175.027 183.949 175.646 183.416 175.686 183.456Z" fill="#FF9A6C"/>
<path d="M178.473 195.3C178.605 195.357 175.929 201.875 172.497 209.856C169.063 217.84 166.174 224.264 166.042 224.207C165.91 224.15 168.585 217.634 172.019 209.65C175.451 201.668 178.341 195.243 178.473 195.3Z" fill="#263238"/>
<path d="M180.505 197.042C180.644 197.08 179.172 202.818 177.218 209.856C175.264 216.896 173.567 222.571 173.429 222.532C173.29 222.494 174.762 216.757 176.717 209.717C178.67 202.679 180.367 197.003 180.505 197.042Z" fill="#263238"/>
<path d="M212.694 202.905C212.68 203.048 208.348 202.728 203.021 202.189C197.692 201.65 193.386 201.098 193.4 200.955C193.414 200.812 197.745 201.132 203.073 201.671C208.401 202.209 212.708 202.762 212.694 202.905Z" fill="#FF9A6C"/>
<path d="M209.164 193.516C209.28 193.587 208.65 194.731 207.434 195.752C206.223 196.78 204.991 197.21 204.94 197.084C204.874 196.947 205.95 196.332 207.098 195.355C208.254 194.386 209.041 193.428 209.164 193.516Z" fill="#FF9A6C"/>
<path d="M219.989 239.853C219.99 239.846 220.071 239.853 220.229 239.875C220.411 239.903 220.641 239.938 220.931 239.983C221.579 240.093 222.487 240.246 223.653 240.443C226.061 240.87 229.53 241.485 233.905 242.261L234.049 242.287L234.033 242.434C232.702 254.625 230.247 274.191 225.992 295.951C224.191 305.206 222.2 313.968 220.206 321.889C218.375 329.832 216.583 337.007 214.235 342.749C213.059 345.59 211.651 348.152 209.74 349.756C207.924 351.436 206.055 352.524 204.448 353.175C202.835 353.827 201.501 354.088 200.598 354.205C199.692 354.314 199.212 354.294 199.212 354.294C199.212 354.285 199.33 354.267 199.561 354.24C199.793 354.219 200.135 354.168 200.583 354.102C201.474 353.953 202.789 353.661 204.369 352.989C205.945 352.317 207.77 351.219 209.541 349.544C211.408 347.936 212.734 345.456 213.894 342.611C216.182 336.888 217.931 329.737 219.74 321.774C221.706 313.854 223.681 305.099 225.48 295.852C229.731 274.113 232.264 254.572 233.719 242.399L233.847 242.572C229.483 241.735 226.024 241.072 223.622 240.611C222.463 240.379 221.559 240.198 220.915 240.07C220.629 240.008 220.401 239.959 220.221 239.92C220.066 239.883 219.988 239.861 219.989 239.853Z" fill="#263238"/>
<path d="M344.328 140.958L348.234 129.189C344.306 123.307 341.903 116.301 341.624 108.714C340.823 86.895 357.862 68.558 379.681 67.758C401.5 66.957 419.837 83.996 420.637 105.815C421.438 127.634 404.399 145.97 382.58 146.771C373.469 147.105 364.972 144.321 358.099 139.385L358.113 139.403L344.328 140.958Z" fill="white"/>
<path d="M344.328 140.958C344.328 140.958 344.645 140.91 345.243 140.836C345.857 140.76 346.737 140.652 347.891 140.51C350.222 140.229 353.646 139.817 358.1 139.28L358.019 139.481L358.005 139.464C357.961 139.411 357.968 139.334 358.021 139.29C358.065 139.254 358.128 139.254 358.172 139.285C362.379 142.265 368.507 145.383 376.335 146.316C378.281 146.549 380.321 146.654 382.426 146.574C384.523 146.393 386.704 146.282 388.894 145.768C393.284 144.88 397.802 143.18 402.021 140.514C406.237 137.859 410.143 134.243 413.253 129.798C416.365 125.363 418.668 120.095 419.726 114.392C421.947 103.024 418.599 89.853 409.851 80.551C405.399 75.841 399.941 72.182 394.016 70.211C388.121 68.174 381.906 67.605 376.043 68.342C370.166 69.057 364.697 71.205 360.051 74.16C355.397 77.128 351.57 80.952 348.714 85.121C345.848 89.293 343.955 93.801 342.9 98.202C342.778 98.755 342.657 99.305 342.537 99.849C342.407 100.392 342.295 100.934 342.252 101.482C342.124 102.572 341.999 103.644 341.876 104.698C341.86 106.819 341.736 108.87 341.948 110.832C342.642 118.716 345.544 124.914 348.331 129.122C348.352 129.153 348.355 129.192 348.345 129.224C347.055 133.011 346.061 135.928 345.383 137.917C345.045 138.899 344.787 139.649 344.606 140.175C344.43 140.688 344.328 140.958 344.328 140.958C344.328 140.958 344.397 140.714 344.556 140.214C344.723 139.692 344.961 138.947 345.273 137.971C345.925 135.953 346.881 132.994 348.123 129.152L348.137 129.254C345.294 125.048 342.325 118.82 341.585 110.867C341.361 108.888 341.477 106.818 341.484 104.675C341.604 103.61 341.726 102.526 341.85 101.425C341.892 100.87 342.002 100.322 342.131 99.773C342.25 99.222 342.37 98.666 342.492 98.107C343.541 93.654 345.441 89.088 348.329 84.859C351.207 80.633 355.071 76.752 359.78 73.736C364.48 70.733 370.019 68.547 375.975 67.814C381.915 67.059 388.218 67.629 394.198 69.691C400.207 71.687 405.745 75.394 410.259 80.172C410.846 80.727 411.336 81.365 411.838 81.99L413.34 83.862L414.654 85.857C415.098 86.516 415.536 87.177 415.88 87.891C416.249 88.591 416.617 89.288 416.984 89.984C417.371 90.67 417.603 91.427 417.919 92.143C418.203 92.872 418.536 93.581 418.776 94.321C418.997 95.067 419.218 95.811 419.438 96.554C421.116 102.512 421.363 108.72 420.253 114.49C419.173 120.269 416.83 125.605 413.669 130.091C410.51 134.587 406.546 138.238 402.273 140.913C397.997 143.599 393.42 145.304 388.979 146.186C386.764 146.697 384.559 146.802 382.44 146.974C380.313 147.046 378.254 146.932 376.291 146.687C368.393 145.707 362.235 142.522 358.029 139.487L358.196 139.308L358.21 139.325C358.254 139.377 358.247 139.455 358.195 139.498C358.176 139.514 358.152 139.523 358.129 139.526C353.629 140 350.17 140.365 347.814 140.613C346.673 140.73 345.803 140.819 345.196 140.881C344.611 140.938 344.328 140.958 344.328 140.958Z" fill="#263238"/>
<path d="M362.869 108.322L368.39 102.215L380.104 111.618L397.503 91.636L403.194 97.178L379.838 122.872L362.869 108.322Z" fill="#37664F"/>
</svg>
